<mxfile host="app.diagrams.net" modified="2021-12-10T03:44:18.030Z" agent="5.0 (Macintosh; Intel Mac OS X 10_15_7) AppleWebKit/537.36 (KHTML, like Gecko) Chrome/96.0.4664.93 Safari/537.36" etag="Q3KxodeCZoqUJnRLFxy8" version="15.7.4" type="github">
  <diagram id="UeLceDq5GZnAgyrlyKgJ" name="Page-1">
    <mxGraphModel dx="884" dy="589" grid="1" gridSize="10" guides="1" tooltips="1" connect="1" arrows="1" fold="1" page="1" pageScale="1" pageWidth="827" pageHeight="1169" math="0" shadow="0">
      <root>
        <mxCell id="0" />
        <mxCell id="1" parent="0" />
      </root>
    </mxGraphModel>
  </diagram>
</mxfile>
